<mxfile host="65bd71144e">
    <diagram id="Pvk16Yk9mmTxDUWuedHs" name="Page-2">
        <mxGraphModel dx="777" dy="-414" grid="0" gridSize="10" guides="1" tooltips="1" connect="1" arrows="1" fold="1" page="0" pageScale="1" pageWidth="827" pageHeight="1169" background="#F4F1DE" math="0" shadow="0">
            <root>
                <mxCell id="Tb9AdFsS8pXjhhtc2Pzk-0"/>
                <mxCell id="Tb9AdFsS8pXjhhtc2Pzk-1" parent="Tb9AdFsS8pXjhhtc2Pzk-0"/>
                <mxCell id="5" value="&lt;h2&gt;Ajouter un menu&lt;/h2&gt;" style="rounded=1;whiteSpace=wrap;html=1;sketch=0;fontColor=#393C56;strokeColor=#E07A5F;fillColor=#F2CC8F;" vertex="1" parent="Tb9AdFsS8pXjhhtc2Pzk-1">
                    <mxGeometry x="340" y="1177" width="120" height="60" as="geometry"/>
                </mxCell>
                <mxCell id="6" value="&lt;h2&gt;Ouvrir le panier&lt;/h2&gt;" style="rounded=1;whiteSpace=wrap;html=1;sketch=0;fontColor=#393C56;strokeColor=#E07A5F;fillColor=#F2CC8F;" vertex="1" parent="Tb9AdFsS8pXjhhtc2Pzk-1">
                    <mxGeometry x="110" y="1291" width="120" height="60" as="geometry"/>
                </mxCell>
                <mxCell id="7" value="" style="endArrow=classic;html=1;fontColor=#393C56;strokeColor=#E07A5F;fillColor=#F2CC8F;exitX=0;exitY=0.5;exitDx=0;exitDy=0;entryX=1;entryY=0.5;entryDx=0;entryDy=0;labelBackgroundColor=#F4F1DE;exitPerimeter=0;" edge="1" parent="Tb9AdFsS8pXjhhtc2Pzk-1" source="18" target="6">
                    <mxGeometry width="50" height="50" relative="1" as="geometry">
                        <mxPoint x="365" y="1321" as="sourcePoint"/>
                        <mxPoint x="230" y="1201" as="targetPoint"/>
                    </mxGeometry>
                </mxCell>
                <mxCell id="8" value="&lt;h3&gt;Modifier panier&lt;/h3&gt;" style="text;html=1;align=center;verticalAlign=middle;whiteSpace=wrap;rounded=0;sketch=0;fontColor=#393C56;" vertex="1" parent="Tb9AdFsS8pXjhhtc2Pzk-1">
                    <mxGeometry x="265" y="1291" width="110" height="20" as="geometry"/>
                </mxCell>
                <mxCell id="9" value="" style="endArrow=classic;html=1;fontColor=#393C56;strokeColor=#E07A5F;fillColor=#F2CC8F;exitX=0.5;exitY=1;exitDx=0;exitDy=0;entryX=0.5;entryY=0;entryDx=0;entryDy=0;labelBackgroundColor=#F4F1DE;" edge="1" parent="Tb9AdFsS8pXjhhtc2Pzk-1" target="18">
                    <mxGeometry width="50" height="50" relative="1" as="geometry">
                        <mxPoint x="400" y="1241" as="sourcePoint"/>
                        <mxPoint x="400" y="1291" as="targetPoint"/>
                    </mxGeometry>
                </mxCell>
                <mxCell id="10" value="&lt;h2&gt;Choisir Menu Ã  retirer&lt;/h2&gt;" style="rounded=1;whiteSpace=wrap;html=1;sketch=0;fontColor=#393C56;strokeColor=#E07A5F;fillColor=#F2CC8F;" vertex="1" parent="Tb9AdFsS8pXjhhtc2Pzk-1">
                    <mxGeometry x="110" y="1391" width="120" height="60" as="geometry"/>
                </mxCell>
                <mxCell id="11" value="&lt;h2&gt;Retirer un menu&lt;/h2&gt;" style="rounded=1;whiteSpace=wrap;html=1;sketch=0;fontColor=#393C56;strokeColor=#E07A5F;fillColor=#F2CC8F;" vertex="1" parent="Tb9AdFsS8pXjhhtc2Pzk-1">
                    <mxGeometry x="110" y="1497" width="120" height="60" as="geometry"/>
                </mxCell>
                <mxCell id="12" value="" style="endArrow=classic;html=1;fontColor=#393C56;strokeColor=#E07A5F;fillColor=#F2CC8F;exitX=0.5;exitY=1;exitDx=0;exitDy=0;entryX=0.5;entryY=0;entryDx=0;entryDy=0;labelBackgroundColor=#F4F1DE;" edge="1" parent="Tb9AdFsS8pXjhhtc2Pzk-1" target="10">
                    <mxGeometry width="50" height="50" relative="1" as="geometry">
                        <mxPoint x="170" y="1351" as="sourcePoint"/>
                        <mxPoint x="440" y="1201" as="targetPoint"/>
                    </mxGeometry>
                </mxCell>
                <mxCell id="13" value="" style="endArrow=classic;html=1;fontColor=#393C56;strokeColor=#E07A5F;fillColor=#F2CC8F;exitX=0.5;exitY=1;exitDx=0;exitDy=0;entryX=0.5;entryY=0;entryDx=0;entryDy=0;labelBackgroundColor=#F4F1DE;" edge="1" parent="Tb9AdFsS8pXjhhtc2Pzk-1">
                    <mxGeometry width="50" height="50" relative="1" as="geometry">
                        <mxPoint x="169.41000000000008" y="1447" as="sourcePoint"/>
                        <mxPoint x="169.41000000000008" y="1497" as="targetPoint"/>
                    </mxGeometry>
                </mxCell>
                <mxCell id="14" value="" style="rhombus;whiteSpace=wrap;html=1;rounded=0;sketch=0;fontColor=#393C56;strokeColor=#E07A5F;fillColor=#F2CC8F;" vertex="1" parent="Tb9AdFsS8pXjhhtc2Pzk-1">
                    <mxGeometry x="370" y="1489" width="60" height="70" as="geometry"/>
                </mxCell>
                <mxCell id="15" value="" style="edgeStyle=elbowEdgeStyle;elbow=horizontal;endArrow=classic;html=1;fontColor=#393C56;strokeColor=#E07A5F;fillColor=#F2CC8F;exitX=1;exitY=0.5;exitDx=0;exitDy=0;entryX=1;entryY=0.5;entryDx=0;entryDy=0;labelBackgroundColor=#F4F1DE;" edge="1" parent="Tb9AdFsS8pXjhhtc2Pzk-1" source="14">
                    <mxGeometry width="50" height="50" relative="1" as="geometry">
                        <mxPoint x="544" y="1574" as="sourcePoint"/>
                        <mxPoint x="464" y="1214" as="targetPoint"/>
                        <Array as="points">
                            <mxPoint x="644" y="1594"/>
                        </Array>
                    </mxGeometry>
                </mxCell>
                <mxCell id="16" value="" style="endArrow=classic;html=1;fontColor=#393C56;strokeColor=#E07A5F;fillColor=#F2CC8F;exitX=1;exitY=0.5;exitDx=0;exitDy=0;entryX=0;entryY=0.5;entryDx=0;entryDy=0;labelBackgroundColor=#F4F1DE;" edge="1" parent="Tb9AdFsS8pXjhhtc2Pzk-1" target="14">
                    <mxGeometry width="50" height="50" relative="1" as="geometry">
                        <mxPoint x="234" y="1523.5" as="sourcePoint"/>
                        <mxPoint x="344" y="1523.5" as="targetPoint"/>
                    </mxGeometry>
                </mxCell>
                <mxCell id="17" value="" style="endArrow=classic;html=1;fontColor=#393C56;strokeColor=#E07A5F;fillColor=#F2CC8F;exitX=0.5;exitY=1;exitDx=0;exitDy=0;labelBackgroundColor=#F4F1DE;" edge="1" parent="Tb9AdFsS8pXjhhtc2Pzk-1" source="14">
                    <mxGeometry width="50" height="50" relative="1" as="geometry">
                        <mxPoint x="378.4100000000001" y="1568.9999999999998" as="sourcePoint"/>
                        <mxPoint x="400" y="1642" as="targetPoint"/>
                    </mxGeometry>
                </mxCell>
                <mxCell id="18" value="" style="rhombus;whiteSpace=wrap;html=1;rounded=0;sketch=0;fontColor=#393C56;strokeColor=#E07A5F;fillColor=#F2CC8F;" vertex="1" parent="Tb9AdFsS8pXjhhtc2Pzk-1">
                    <mxGeometry x="370" y="1286" width="60" height="70" as="geometry"/>
                </mxCell>
                <mxCell id="19" value="" style="endArrow=classic;html=1;fontColor=#393C56;strokeColor=#E07A5F;fillColor=#F2CC8F;exitX=0.5;exitY=1;exitDx=0;exitDy=0;labelBackgroundColor=#F4F1DE;" edge="1" parent="Tb9AdFsS8pXjhhtc2Pzk-1" source="18">
                    <mxGeometry width="50" height="50" relative="1" as="geometry">
                        <mxPoint x="399.41" y="1406" as="sourcePoint"/>
                        <mxPoint x="399.4100000000001" y="1489" as="targetPoint"/>
                    </mxGeometry>
                </mxCell>
                <mxCell id="20" value="&lt;h3&gt;Ajouter menu&lt;/h3&gt;" style="text;html=1;align=center;verticalAlign=middle;whiteSpace=wrap;rounded=0;sketch=0;fontColor=#393C56;" vertex="1" parent="Tb9AdFsS8pXjhhtc2Pzk-1">
                    <mxGeometry x="410" y="1497" width="140" height="20" as="geometry"/>
                </mxCell>
                <mxCell id="21" value="&lt;h3&gt;Ne pas ajouter menu&lt;/h3&gt;" style="text;html=1;align=center;verticalAlign=middle;whiteSpace=wrap;rounded=0;sketch=0;fontColor=#393C56;" vertex="1" parent="Tb9AdFsS8pXjhhtc2Pzk-1">
                    <mxGeometry x="274" y="1559" width="140" height="20" as="geometry"/>
                </mxCell>
                <mxCell id="22" value="&lt;h3&gt;Pas modifier panier&lt;/h3&gt;" style="text;html=1;align=center;verticalAlign=middle;whiteSpace=wrap;rounded=0;sketch=0;fontColor=#393C56;" vertex="1" parent="Tb9AdFsS8pXjhhtc2Pzk-1">
                    <mxGeometry x="400" y="1356" width="140" height="20" as="geometry"/>
                </mxCell>
                <mxCell id="23" value="&lt;h2&gt;Enregistrer la commande&lt;/h2&gt;" style="rounded=1;whiteSpace=wrap;html=1;sketch=0;fontColor=#393C56;strokeColor=#E07A5F;fillColor=#F2CC8F;" vertex="1" parent="Tb9AdFsS8pXjhhtc2Pzk-1">
                    <mxGeometry x="340" y="1740" width="120" height="60" as="geometry"/>
                </mxCell>
                <mxCell id="24" value="&lt;h2&gt;Valider le panier&lt;/h2&gt;" style="rounded=1;whiteSpace=wrap;html=1;sketch=0;fontColor=#393C56;strokeColor=#E07A5F;fillColor=#F2CC8F;" vertex="1" parent="Tb9AdFsS8pXjhhtc2Pzk-1">
                    <mxGeometry x="340" y="1640" width="120" height="60" as="geometry"/>
                </mxCell>
                <mxCell id="25" value="&lt;h2&gt;Donner un avis&lt;/h2&gt;" style="rounded=1;whiteSpace=wrap;html=1;sketch=0;fontColor=#393C56;strokeColor=#E07A5F;fillColor=#F2CC8F;" vertex="1" parent="Tb9AdFsS8pXjhhtc2Pzk-1">
                    <mxGeometry x="340" y="1830" width="120" height="60" as="geometry"/>
                </mxCell>
                <mxCell id="26" value="" style="endArrow=classic;html=1;fontColor=#393C56;strokeColor=#E07A5F;fillColor=#F2CC8F;exitX=0.5;exitY=1;exitDx=0;exitDy=0;entryX=0.5;entryY=0;entryDx=0;entryDy=0;labelBackgroundColor=#F4F1DE;" edge="1" parent="Tb9AdFsS8pXjhhtc2Pzk-1" source="24" target="23">
                    <mxGeometry width="50" height="50" relative="1" as="geometry">
                        <mxPoint x="540" y="1680" as="sourcePoint"/>
                        <mxPoint x="590" y="1630" as="targetPoint"/>
                    </mxGeometry>
                </mxCell>
                <mxCell id="27" value="" style="endArrow=classic;html=1;fontColor=#393C56;strokeColor=#E07A5F;fillColor=#F2CC8F;exitX=0.5;exitY=1;exitDx=0;exitDy=0;entryX=0.5;entryY=0;entryDx=0;entryDy=0;labelBackgroundColor=#F4F1DE;" edge="1" parent="Tb9AdFsS8pXjhhtc2Pzk-1" source="23" target="25">
                    <mxGeometry width="50" height="50" relative="1" as="geometry">
                        <mxPoint x="540" y="1790" as="sourcePoint"/>
                        <mxPoint x="590" y="1740" as="targetPoint"/>
                    </mxGeometry>
                </mxCell>
                <mxCell id="28" value="&lt;h2&gt;CrÃ©er un panier&lt;/h2&gt;" style="rounded=1;whiteSpace=wrap;html=1;sketch=0;fontColor=#393C56;strokeColor=#E07A5F;fillColor=#F2CC8F;" vertex="1" parent="Tb9AdFsS8pXjhhtc2Pzk-1">
                    <mxGeometry x="340" y="1030" width="120" height="60" as="geometry"/>
                </mxCell>
                <mxCell id="29" value="" style="endArrow=classic;html=1;fontColor=#393C56;strokeColor=#E07A5F;fillColor=#F2CC8F;entryX=0.5;entryY=0;entryDx=0;entryDy=0;labelBackgroundColor=#F4F1DE;" edge="1" parent="Tb9AdFsS8pXjhhtc2Pzk-1" target="5">
                    <mxGeometry width="50" height="50" relative="1" as="geometry">
                        <mxPoint x="399" y="1090" as="sourcePoint"/>
                        <mxPoint x="399" y="1135" as="targetPoint"/>
                    </mxGeometry>
                </mxCell>
            </root>
        </mxGraphModel>
    </diagram>
</mxfile>